# xmcd
#
# Track frame offsets: 
#        150
#        13987
#        37576
#        61335
#        91549
#        131112
#        184199
#        218852
#
# Disc length: 4440 seconds
#
# Revision: 2
# Processed by: cddbd v1.5.2PL0 Copyright (c) Steve Scherf et al.
# Submitted via: ExactAudioCopy v1.0b1
#
DISCID=64115608
DTITLE=Kane - February
DYEAR=2004
DGENRE=Acoustic
TTITLE0=Intro
TTITLE1=Alone
TTITLE2=Before You Let Me Go
TTITLE3=Hold On To The World
TTITLE4=Where Do I Go Now
TTITLE5=So Glad You Made It
TTITLE6=Let It Be
TTITLE7=DATA
EXTD=New album of Kane, just out now in the store... Live session reco
EXTD=rded at the Pepsi Stage, Amsterdam
EXTT0=
EXTT1=
EXTT2=
EXTT3=
EXTT4=
EXTT5=
EXTT6=
EXTT7=
PLAYORDER=
